<svg width="457" height="44.836" viewBox="0 0 457 44.836" xmlns="http://www.w3.org/2000/svg"><g fill="#111"><path d="M3.595 9.427v25.546h16.856v-3.45H7.317v-7.77h12.05v-3.36H7.317v-7.588H20.45V9.427zM25.492 34.973h3.559V24.62c0-3.252 1.59-4.896 4.155-4.896 2.313 0 3.631 1.536 3.631 4.57v10.678h3.578V24.386c0-3.252 1.68-4.661 4.155-4.661 2.294 0 3.631 1.536 3.631 4.57v10.678h3.577V23.844c0-4.751-2.457-7.263-6.36-7.263-2.528 0-4.407.886-5.907 3.252-1.12-2.276-2.908-3.252-5.149-3.252-2.113 0-3.938.85-5.311 2.8v-2.474h-3.56zM57.216 34.973h3.56V24.62c0-3.252 1.59-4.896 4.155-4.896 2.312 0 3.631 1.536 3.631 4.57v10.678h3.577V24.386c0-3.252 1.68-4.661 4.155-4.661 2.295 0 3.632 1.536 3.632 4.57v10.678h3.577V23.844c0-4.751-2.457-7.263-6.36-7.263-2.529 0-4.408.886-5.907 3.252-1.12-2.276-2.909-3.252-5.15-3.252-2.113 0-3.938.85-5.31 2.8v-2.474h-3.56zM93.602 35.298c2.565 0 4.607-.994 6.197-3.36l.235 3.035h2.963V24.097c0-4.77-2.692-7.516-7.39-7.516-3.233 0-5.618 1.21-7.533 3.867l2.746 1.969c1.066-1.753 2.656-2.71 4.643-2.71 2.583 0 4.119 1.445 4.137 4.643h-4.787c-4.878 0-7.444 2.06-7.444 5.474 0 3.415 2.367 5.474 6.233 5.474zm.723-3.035c-2.15 0-3.288-1.03-3.288-2.602 0-1.626 1.228-2.71 3.92-2.71H99.6v.452c0 2.349-2.15 4.86-5.275 4.86zM108.29 34.973h3.56V24.62c0-3.252 1.697-4.896 4.443-4.896 2.367 0 3.903 1.536 3.903 4.57v10.678h3.577V23.844c0-4.68-2.53-7.263-6.45-7.263-2.114 0-4.1.922-5.474 2.8v-2.474h-3.559zM135.462 35.298c2.204 0 4.065-.903 5.474-2.818v2.493h3.577V16.907h-3.577V27.24c0 3.27-1.698 4.914-4.444 4.914-2.349 0-3.903-1.536-3.903-4.571V16.907h-3.559v11.128c0 4.68 2.53 7.263 6.432 7.263zM157.611 35.298c2.981 0 5.24-.994 7.245-3.143l-2.475-2.168c-1.391 1.517-2.819 2.113-4.697 2.113-2.855 0-4.824-1.59-5.185-5.094h12.772c.109-.506.145-1.03.145-1.662 0-4.246-2.33-8.763-8.094-8.763-5.113 0-8.563 3.812-8.563 9.431 0 5.6 3.342 9.286 8.852 9.286zm-.343-15.7c2.764 0 4.499 1.843 4.625 4.788h-9.358c.415-3.216 2.258-4.788 4.733-4.788zM169.607 34.973h3.56V9.427h-3.56zM178.803 34.973h3.56V9.427h-3.56zM195.479 35.298c2.98 0 5.239-.994 7.244-3.143l-2.475-2.168c-1.391 1.517-2.818 2.113-4.697 2.113-2.855 0-4.824-1.59-5.185-5.094h12.773c.108-.506.144-1.03.144-1.662 0-4.246-2.33-8.763-8.094-8.763-5.112 0-8.563 3.812-8.563 9.431 0 5.6 3.342 9.286 8.853 9.286zm-.344-15.7c2.764 0 4.499 1.843 4.625 4.788h-9.358c.415-3.216 2.258-4.788 4.733-4.788zM235.514 34.973l-6.613-11.49c3.379-.976 5.438-3.505 5.438-6.811 0-4.427-3.378-7.245-8.527-7.245h-8.437v25.546h3.722V23.916h4.191l5.98 11.057zm-9.9-14.363h-4.5v-7.805h4.463c3.162 0 4.986 1.446 4.986 3.903s-1.716 3.902-4.95 3.902zM246.769 35.298c2.981 0 5.24-.994 7.245-3.143l-2.475-2.168c-1.392 1.517-2.819 2.113-4.698 2.113-2.854 0-4.823-1.59-5.185-5.094h12.773c.109-.506.145-1.03.145-1.662 0-4.246-2.33-8.763-8.094-8.763-5.113 0-8.563 3.812-8.563 9.431 0 5.6 3.342 9.286 8.852 9.286zm-.343-15.7c2.764 0 4.498 1.843 4.625 4.788h-9.359c.416-3.216 2.259-4.788 4.734-4.788zM260.012 42.723h3.884l10.153-25.816h-3.776l-5.167 13.35-5.13-13.35h-4.065l7.37 17.885zM284.239 35.298c2.98 0 5.239-.994 7.244-3.143l-2.475-2.168c-1.39 1.517-2.818 2.113-4.697 2.113-2.854 0-4.824-1.59-5.185-5.094h12.773c.108-.506.144-1.03.144-1.662 0-4.246-2.33-8.763-8.093-8.763-5.113 0-8.564 3.812-8.564 9.431 0 5.6 3.343 9.286 8.853 9.286zm-.343-15.7c2.764 0 4.498 1.843 4.625 4.788h-9.359c.416-3.216 2.258-4.788 4.734-4.788zM301.98 35.298c3.722 0 6.811-1.897 6.811-5.673 0-6.865-10.081-4.426-10.081-8.184 0-1.156 1.03-1.987 2.927-1.987 2.06 0 3.306 1.066 3.992 2.403l2.837-1.554c-1.301-2.385-3.595-3.722-6.83-3.722-3.92 0-6.359 2.096-6.359 5.095 0 7.028 9.991 4.191 9.991 8.365 0 1.337-1.138 2.276-3.36 2.276-2.06 0-3.668-.975-4.661-3.09l-2.8 1.627c1.21 2.872 3.649 4.444 7.533 4.444z"/></g></svg>