<svg width="758.28" height="33.627" viewBox="0 0 758.28 33.627" xmlns="http://www.w3.org/2000/svg"><g fill="#111"><path d="M2.892 6.094V26.64h2.993v-8.588H8.98c4.286 0 7.221-2.121 7.221-5.971 0-3.778-2.92-5.987-7.09-5.987zm6.117 9.212H5.885V8.84h3.124c2.746 0 4.112 1.22 4.112 3.284 0 2.078-1.322 3.182-4.112 3.182zM33.329 6.094H31.09L23.143 26.64h3.168l1.729-4.65h8.297l1.714 4.65h3.24zm-4.417 13.324l3.269-9.14 3.298 9.14zM51.663 6.094V26.64h2.993v-8.588h3.095c4.286 0 7.221-2.121 7.221-5.971 0-3.778-2.92-5.987-7.09-5.987zm6.117 9.212h-3.124V8.84h3.124c2.746 0 4.112 1.22 4.112 3.284 0 2.078-1.322 3.182-4.112 3.182zM82.1 6.094h-2.238L71.914 26.64h3.168l1.729-4.65h8.297l1.714 4.65h3.24zm-4.417 13.324l3.27-9.14 3.297 9.14zM118.32 26.64l-8.325-12.365 8.035-8.181h-3.894l-10.71 11.145V6.094h-2.992V26.64h2.993v-5.681l4.548-4.621 6.611 10.302zM136.494 6.094h-2.237l-7.948 20.546h3.167l1.73-4.65h8.296l1.715 4.65h3.24zm-4.417 13.324l3.27-9.14 3.298 9.14zM154.828 6.094V26.64h2.993v-8.588h3.095c4.287 0 7.222-2.121 7.222-5.971 0-3.778-2.92-5.987-7.091-5.987zm6.117 9.212h-3.124V8.84h3.124c2.746 0 4.112 1.22 4.112 3.284 0 2.078-1.322 3.182-4.112 3.182zM178.887 6.094V26.64h13.556v-2.775H181.88v-6.248h9.692v-2.703h-9.692V8.81h10.563V6.094zM205.662 26.901c1.017 0 1.831-.828 1.831-1.83 0-1.018-.828-1.788-1.83-1.788a1.79 1.79 0 00-1.802 1.788c0 1.002.784 1.83 1.801 1.83zM227.76 26.901c4.402 0 7.264-1.932 8.877-5.783l-2.775-1.133c-1.177 2.862-3.095 4.098-6.045 4.098-4.257 0-6.61-2.921-6.61-7.789 0-4.795 2.44-7.643 6.654-7.643 3.139 0 4.998 1.366 5.943 4.04l2.804-1.105c-1.569-3.821-4.388-5.754-8.747-5.754-6.088 0-9.764 4.156-9.764 10.579 0 6.495 3.763 10.49 9.662 10.49zM255.8 26.901c6.61 0 9.676-4.94 9.676-10.534S262.411 5.832 255.8 5.832c-6.611 0-9.677 4.94-9.677 10.535 0 5.594 3.066 10.534 9.677 10.534zm0-2.702c-4.709 0-6.568-3.647-6.568-7.832 0-4.185 1.86-7.832 6.567-7.832 4.708 0 6.568 3.647 6.568 7.832 0 4.185-1.86 7.832-6.568 7.832zM276.908 6.094V26.64h2.863V10.22l5.826 16.42h2.805l5.84-16.42v16.42h2.878V6.094h-4.156l-5.943 17.044-5.957-17.044z"/></g></svg>