<svg width="126" height="79" viewBox="0 0 126 79" xmlns="http://www.w3.org/2000/svg"><g fill="#111"><path d="M.967 3.686v12.428h4.052c2.636 0 4.2-1.354 4.2-3.568 0-1.468-.773-2.558-2.047-3.05.95-.563 1.468-1.494 1.468-2.646 0-1.96-1.424-3.164-3.85-3.164zM5.01 9.004H2.496V5.048h2.189c1.6 0 2.46.739 2.46 1.97 0 1.282-.878 1.986-2.135 1.986zm.07 5.739H2.496V10.33h2.786c1.486 0 2.364.835 2.364 2.18 0 1.485-.887 2.232-2.566 2.232zM13.588 16.29a3.294 3.294 0 002.76-1.442v1.266h1.45v-8.79h-1.45v5.134c0 1.538-1.02 2.54-2.391 2.54-1.336 0-2.145-.835-2.145-2.33V7.326h-1.458v5.58c0 2.057 1.23 3.385 3.234 3.385zM20.479 5.426a.917.917 0 00.905-.914.917.917 0 00-.905-.914.919.919 0 00-.915.914c0 .501.414.914.915.914zm-.739 10.688h1.46v-8.79h-1.46zM23.142 16.114H24.6V3.686h-1.46zM34.541 16.114V3.686h-1.45v4.93c-.712-.984-1.723-1.467-2.918-1.467-2.373 0-4.113 1.74-4.113 4.58 0 2.82 1.74 4.56 4.104 4.56 1.195 0 2.215-.483 2.927-1.467v1.292zm-4.228-1.108c-1.643 0-2.768-1.256-2.768-3.295 0-2.022 1.125-3.279 2.786-3.279 1.714 0 2.883 1.257 2.883 3.287 0 2.03-1.17 3.287-2.9 3.287zM44.086 16.29c2.153 0 3.621-1.011 4.148-2.918h-1.476c-.378 1.09-1.204 1.652-2.558 1.652-1.731 0-2.865-1.213-2.865-3.305 0-1.933 1.222-3.304 2.865-3.304 1.354 0 2.118.536 2.461 1.643h1.503c-.492-1.951-1.793-2.909-3.973-2.909-2.47 0-4.333 1.969-4.333 4.605 0 2.743 1.732 4.536 4.228 4.536zM52.673 16.29a3.294 3.294 0 002.76-1.442v1.266h1.45v-8.79h-1.45v5.134c0 1.538-1.02 2.54-2.391 2.54-1.336 0-2.145-.835-2.145-2.33V7.326h-1.459v5.58c0 2.057 1.23 3.385 3.235 3.385zM61.47 16.29c2.101 0 3.297-1.108 3.297-2.558 0-3.296-4.957-2.1-4.957-4.236 0-.624.527-1.178 1.52-1.178 1.125 0 1.74.536 1.784 1.503h1.327c-.017-1.696-1.054-2.672-3.04-2.672-1.881 0-2.98 1.09-2.98 2.435 0 3.357 4.93 2.047 4.93 4.271 0 .765-.615 1.283-1.845 1.274-1.354 0-1.969-.58-2.013-1.608h-1.345c.07 1.75 1.275 2.769 3.323 2.769zM69.486 16.254c.326 0 .677-.035.958-.123v-1.335a2.991 2.991 0 01-.879.123c-.949 0-1.441-.537-1.441-1.916v-4.43h2.285V7.325h-2.285V5.04l-1.433.184v2.1h-1.459v1.249h1.45l-.008 4.43c0 2.197.958 3.251 2.812 3.251zM75.55 16.29c2.54 0 4.527-1.995 4.527-4.562 0-2.575-1.986-4.579-4.517-4.579-2.54 0-4.536 1.995-4.536 4.562 0 2.575 1.996 4.579 4.527 4.579zm.01-1.284c-1.723 0-3.041-1.397-3.041-3.295 0-1.881 1.318-3.279 3.032-3.279 1.722 0 3.04 1.398 3.04 3.296 0 1.881-1.318 3.278-3.031 3.278zM81.422 16.114h1.459v-5.177c0-1.52.984-2.496 2.303-2.496 1.292 0 2.065.809 2.065 2.285v5.388h1.459v-5.177c0-1.53.976-2.496 2.303-2.496 1.283 0 2.065.809 2.065 2.285v5.388h1.46v-5.59c0-2.057-1.214-3.375-3.165-3.375-1.31 0-2.355.615-3.015 1.67-.483-1.055-1.467-1.67-2.812-1.67a3.2 3.2 0 00-2.707 1.441V7.325h-1.415zM100.187 16.29c2.153 0 3.682-.967 4.14-3.05h-1.477c-.334 1.23-1.284 1.775-2.61 1.775-1.67 0-2.77-1.08-2.875-2.944h7.04c.027-.317.035-.607.035-.923 0-2.566-1.643-3.999-4.043-3.999-2.601 0-4.517 1.934-4.517 4.658 0 2.734 1.67 4.483 4.307 4.483zm.175-7.884c1.538 0 2.584.888 2.62 2.505h-5.546c.298-1.512 1.397-2.505 2.926-2.505zM105.83 16.114h1.423v-4.236c0-1.97 1.063-3.279 2.522-3.279.343 0 .598.053.853.14V7.273a3.447 3.447 0 00-.853-.097c-1.098 0-2.03.695-2.513 1.916V7.325h-1.433z"/></g><g fill="#111"><path d="M4.403 36.054c.326 0 .677-.035.958-.123v-1.335a2.991 2.991 0 01-.879.123c-.949 0-1.441-.537-1.441-1.916v-4.43h2.285v-1.248H3.041V24.84l-1.433.184v2.1H.15v1.249H1.6l-.008 4.43c0 2.197.958 3.251 2.812 3.251zM6.504 35.914h1.424v-4.236c0-1.97 1.063-3.279 2.522-3.279.343 0 .598.053.853.14v-1.467a3.447 3.447 0 00-.853-.097c-1.098 0-2.03.695-2.513 1.916v-1.766H6.504zM15.768 36.09a3.294 3.294 0 002.76-1.442v1.266h1.45v-8.79h-1.45v5.134c0 1.538-1.02 2.54-2.391 2.54-1.336 0-2.145-.835-2.145-2.33v-5.343h-1.459v5.58c0 2.057 1.23 3.385 3.235 3.385zM24.565 36.09c2.101 0 3.296-1.108 3.296-2.558 0-3.296-4.957-2.1-4.957-4.236 0-.624.528-1.178 1.52-1.178 1.126 0 1.741.536 1.785 1.503h1.327c-.017-1.696-1.055-2.672-3.04-2.672-1.882 0-2.98 1.09-2.98 2.435 0 3.357 4.93 2.047 4.93 4.271 0 .765-.615 1.283-1.845 1.274-1.354 0-1.97-.58-2.013-1.608h-1.345c.07 1.75 1.275 2.769 3.322 2.769zM32.581 36.054c.325 0 .677-.035.958-.123v-1.335a2.991 2.991 0 01-.879.123c-.95 0-1.441-.537-1.441-1.916v-4.43h2.285v-1.248h-2.285V24.84l-1.433.184v2.1h-1.459v1.249h1.45l-.008 4.43c0 2.197.958 3.251 2.812 3.251zM37.767 27.125l2.592 8.789h1.363l2.18-6.759 2.188 6.759h1.353l2.62-8.79H48.48L46.723 33.7l-2.127-6.574h-1.363l-2.127 6.583-1.757-6.583zM51.882 25.226a.917.917 0 00.905-.914.917.917 0 00-.905-.914.919.919 0 00-.914.914c0 .501.413.914.914.914zm-.738 10.688h1.459v-8.79h-1.46zM57.981 36.054c.326 0 .677-.035.958-.123v-1.335a2.991 2.991 0 01-.878.123c-.95 0-1.442-.537-1.442-1.916v-4.43h2.285v-1.248H56.62V24.84l-1.432.184v2.1h-1.46v1.249h1.45l-.008 4.43c0 2.197.958 3.251 2.812 3.251zM59.994 35.914h1.46V30.78c0-1.538 1.019-2.54 2.39-2.54 1.336 0 2.144.835 2.144 2.33v5.343h1.46v-5.59c0-2.057-1.24-3.375-3.235-3.375a3.294 3.294 0 00-2.76 1.441v-4.904h-1.459zM75.647 36.09c1.45 0 2.435-.51 3.173-1.661l.08 1.485h1.221v-5.44c0-2.198-1.353-3.525-3.472-3.525-1.845 0-3.137.967-3.48 2.61l1.371.018c.255-.844.95-1.354 2.04-1.354 1.353 0 2.161.844 2.161 2.33v.632a7.488 7.488 0 00-2.54-.457c-2.215 0-3.515 1.081-3.507 2.76-.008 1.582 1.064 2.602 2.953 2.602zm-1.494-2.681c-.008-.879.739-1.512 2.11-1.512.905 0 1.634.15 2.46.501-.114 1.292-1.09 2.452-2.82 2.452-1.196 0-1.758-.58-1.75-1.441zM81.923 35.914h1.459V30.78c0-1.538 1.02-2.54 2.39-2.54 1.336 0 2.145.835 2.145 2.33v5.343h1.459v-5.59c0-2.057-1.24-3.375-3.234-3.375a3.294 3.294 0 00-2.76 1.441v-1.265h-1.46zM98.587 36.08c2.61 0 4.113-1.3 4.113-3.321 0-4.386-6.205-3.244-6.205-6.399 0-.993.677-1.714 2.083-1.714 1.468 0 2.171.686 2.233 1.846l1.502.009c-.079-2.048-1.274-3.19-3.673-3.19-2.286 0-3.648 1.335-3.648 3.102 0 4.482 6.214 3.252 6.214 6.46 0 1.24-.835 1.88-2.514 1.88-1.696 0-2.54-.755-2.654-2.117l-1.53-.01c.106 2.101 1.556 3.455 4.079 3.455zM107.57 36.08c2.61 0 4.113-1.3 4.113-3.321 0-4.386-6.205-3.244-6.205-6.399 0-.993.676-1.714 2.083-1.714 1.467 0 2.17.686 2.232 1.846l1.503.009c-.08-2.048-1.275-3.19-3.674-3.19-2.285 0-3.647 1.335-3.647 3.102 0 4.482 6.213 3.252 6.213 6.46 0 1.24-.834 1.88-2.513 1.88-1.696 0-2.54-.755-2.654-2.117l-1.53-.01c.106 2.101 1.556 3.455 4.078 3.455zM113.115 23.486v12.428h7.093v-1.45h-5.563V23.486z"/></g><g fill="#111"><path d="M.967 59.353h1.459v-4.931c.712.984 1.722 1.468 2.918 1.468 2.364 0 4.113-1.74 4.113-4.58 0-2.82-1.74-4.561-4.104-4.561-1.196 0-2.215.483-2.927 1.468v-1.292H.966zm4.219-4.747c-1.723 0-2.883-1.256-2.883-3.287 0-2.03 1.169-3.287 2.9-3.287 1.644 0 2.769 1.257 2.769 3.296 0 2.022-1.134 3.278-2.786 3.278zM10.907 55.714h1.46V43.286h-1.46zM16.734 55.89c1.45 0 2.435-.51 3.173-1.661l.08 1.485h1.221v-5.44c0-2.198-1.354-3.525-3.472-3.525-1.845 0-3.137.967-3.48 2.61l1.371.018c.255-.844.95-1.354 2.039-1.354 1.354 0 2.162.844 2.162 2.33v.632a7.488 7.488 0 00-2.54-.457c-2.215 0-3.516 1.081-3.507 2.76-.009 1.582 1.064 2.602 2.953 2.602zm-1.494-2.681c-.009-.879.739-1.512 2.11-1.512.905 0 1.634.15 2.46.501-.114 1.292-1.09 2.452-2.82 2.452-1.196 0-1.759-.58-1.75-1.441zM23.01 55.714h1.459V50.58c0-1.538 1.02-2.54 2.39-2.54 1.336 0 2.145.835 2.145 2.33v5.343h1.459v-5.59c0-2.057-1.24-3.375-3.234-3.375a3.294 3.294 0 00-2.76 1.441v-1.265h-1.46zM36.94 55.714h1.46v-7.568h2.18v-1.221H38.4v-.809c0-1.186.439-1.714 1.3-1.714.273 0 .563.044.88.141v-1.327a3.522 3.522 0 00-.871-.106c-1.775 0-2.769 1.073-2.769 3.13v.685h-1.582v1.221h1.582zM41.634 55.714h1.424v-4.236c0-1.97 1.063-3.279 2.522-3.279.343 0 .598.053.853.14v-1.467a3.447 3.447 0 00-.853-.097c-1.099 0-2.03.695-2.514 1.916v-1.766h-1.432zM51.495 55.89c2.54 0 4.526-1.995 4.526-4.562 0-2.575-1.986-4.579-4.517-4.579-2.54 0-4.535 1.995-4.535 4.562 0 2.575 1.995 4.579 4.526 4.579zm.009-1.284c-1.723 0-3.041-1.397-3.041-3.295 0-1.881 1.318-3.279 3.032-3.279 1.723 0 3.041 1.398 3.041 3.296 0 1.881-1.318 3.278-3.032 3.278zM57.366 55.714h1.46v-5.177c0-1.52.984-2.496 2.302-2.496 1.292 0 2.065.809 2.065 2.285v5.388h1.46v-5.177c0-1.53.975-2.496 2.302-2.496 1.283 0 2.066.809 2.066 2.285v5.388h1.458v-5.59c0-2.057-1.212-3.375-3.164-3.375-1.31 0-2.355.615-3.014 1.67-.484-1.055-1.468-1.67-2.813-1.67a3.2 3.2 0 00-2.707 1.441v-1.265h-1.415z"/></g><g fill="#111"><path d="M6.434 75.69c1.907 0 3.419-.739 4.236-2.189l.123 2.013h1.213v-6.372H7.559v1.274h3.014v.158c0 1.872-1.257 3.753-4.025 3.753-2.997 0-4.395-1.95-4.395-5.053 0-3.173 1.688-5.01 4.412-5.01 2.189 0 3.463.95 3.815 2.768h1.573c-.422-2.61-2.259-4.122-5.396-4.122-3.665 0-5.995 2.55-5.995 6.416 0 4.017 2.242 6.364 5.872 6.364zM17.79 75.69c2.54 0 4.525-1.995 4.525-4.562 0-2.575-1.986-4.579-4.517-4.579-2.54 0-4.535 1.995-4.535 4.562 0 2.575 1.995 4.579 4.526 4.579zm.008-1.284c-1.723 0-3.041-1.397-3.041-3.295 0-1.881 1.318-3.279 3.032-3.279 1.723 0 3.041 1.398 3.041 3.296 0 1.881-1.318 3.278-3.032 3.278zM23.66 75.514h3.428c4.254 0 6.565-2.206 6.565-6.232 0-4.016-2.311-6.196-6.521-6.196H23.66zm1.53-1.389v-9.65h1.907c3.173 0 4.957 1.555 4.957 4.825 0 3.278-1.635 4.825-4.949 4.825zM37.608 75.69c1.45 0 2.435-.51 3.173-1.661l.08 1.485h1.221v-5.44c0-2.198-1.353-3.525-3.472-3.525-1.845 0-3.137.967-3.48 2.61l1.371.018c.255-.844.95-1.354 2.039-1.354 1.354 0 2.162.844 2.162 2.33v.632a7.488 7.488 0 00-2.54-.457c-2.215 0-3.516 1.081-3.507 2.76-.009 1.582 1.064 2.602 2.953 2.602zm-1.494-2.681c-.009-.879.739-1.512 2.11-1.512.905 0 1.634.15 2.46.501-.114 1.292-1.09 2.452-2.82 2.452-1.196 0-1.759-.58-1.75-1.441zM51.882 75.514V63.086h-1.45v4.93c-.712-.984-1.723-1.467-2.918-1.467-2.373 0-4.114 1.74-4.114 4.58 0 2.82 1.74 4.56 4.105 4.56 1.195 0 2.215-.483 2.927-1.467v1.292zm-4.228-1.108c-1.643 0-2.768-1.256-2.768-3.295 0-2.022 1.125-3.279 2.786-3.279 1.714 0 2.883 1.257 2.883 3.287 0 2.03-1.17 3.287-2.9 3.287zM61.822 75.514V63.086h-1.45v4.93c-.712-.984-1.723-1.467-2.918-1.467-2.373 0-4.113 1.74-4.113 4.58 0 2.82 1.74 4.56 4.104 4.56 1.196 0 2.215-.483 2.927-1.467v1.292zm-4.227-1.108c-1.644 0-2.769-1.256-2.769-3.295 0-2.022 1.125-3.279 2.786-3.279 1.714 0 2.883 1.257 2.883 3.287 0 2.03-1.169 3.287-2.9 3.287zM67.271 79.328c2.391 0 3.876-1.459 3.876-4.122v-8.481h-1.45v5.106c0 1.538-1.02 2.54-2.39 2.54-1.354 0-2.145-.826-2.145-2.329v-5.317h-1.459v5.554c0 2.048 1.222 3.375 3.234 3.375a3.294 3.294 0 002.76-1.44v1.22c0 1.846-.852 2.708-2.434 2.708-1.319 0-2.004-.554-2.198-1.617H63.66c.264 1.74 1.486 2.803 3.612 2.803z"/></g></svg>